<?xml version="1.0" standalone="no"?>
<!DOCTYPE svg PUBLIC "-//W3C//DTD SVG 20010904//EN"
 "http://www.w3.org/TR/2001/REC-SVG-20010904/DTD/svg10.dtd">
<svg version="1.0" xmlns="http://www.w3.org/2000/svg" viewBox="0 0 236 168"
 preserveAspectRatio="xMidYMid meet">

<g transform="translate(0.000000,168.000000) scale(0.100000,-0.100000)"
fill="#fff" stroke="none">
<path d="M772 1588 c-5 -7 -13 -47 -17 -88 l-7 -75 -77 -32 c-42 -18 -80 -33
-83 -33 -4 0 -33 23 -64 50 -31 28 -62 50 -68 50 -19 0 -176 -164 -176 -183 0
-10 23 -45 51 -78 52 -58 52 -59 34 -85 -9 -15 -25 -49 -34 -78 l-18 -51 -76
-5 c-43 -4 -83 -12 -89 -19 -16 -16 -15 -238 1 -254 6 -6 45 -13 87 -17 l76
-5 22 -60 c12 -33 27 -69 33 -79 9 -17 4 -28 -38 -76 -27 -31 -49 -66 -49 -78
0 -13 30 -50 81 -99 44 -43 85 -80 90 -82 6 -1 31 14 57 36 26 21 55 44 64 51
15 12 29 9 97 -19 l80 -32 7 -76 c3 -42 11 -82 16 -88 7 -9 45 -13 124 -13
131 0 144 7 144 74 0 91 6 102 71 126 32 11 59 26 59 31 0 11 -74 114 -89 123
-5 3 -28 -1 -51 -9 -58 -21 -203 -20 -266 2 -260 87 -378 380 -252 628 33 63
122 149 191 183 108 53 239 61 343 22 19 -7 31 -7 40 1 21 18 84 105 84 117 0
6 -27 21 -59 32 -64 24 -71 36 -71 122 0 75 -5 78 -139 78 -83 0 -122 -4 -129
-12z"/>
<path d="M1848 1096 c-81 -30 -118 -77 -118 -151 0 -78 42 -121 158 -160 100
-33 114 -45 110 -86 -2 -25 -9 -34 -31 -42 -39 -13 -76 -1 -89 28 -10 23 -17
25 -80 25 -73 0 -77 -4 -59 -53 13 -33 64 -79 103 -94 57 -20 158 -16 208 10
57 29 82 64 88 125 8 87 -29 130 -148 172 -84 30 -120 55 -120 84 0 31 18 46
56 46 31 0 64 -21 64 -41 0 -5 32 -9 70 -9 67 0 70 1 70 24 0 34 -40 87 -83
109 -49 25 -150 32 -199 13z"/>
<path d="M930 911 c0 -199 -6 -235 -38 -243 -29 -8 -66 14 -70 40 -3 20 -9 22
-69 22 l-66 0 6 -40 c11 -85 83 -140 181 -140 93 0 150 36 175 109 7 21 11
112 11 237 l0 204 -65 0 -65 0 0 -189z"/>
<path d="M1170 825 l0 -277 148 4 c162 5 194 14 258 70 54 48 84 118 84 199 0
117 -42 195 -132 245 -51 28 -59 29 -205 32 l-153 4 0 -277z m280 143 c54 -28
80 -73 80 -141 0 -89 -45 -142 -137 -159 -96 -18 -93 -23 -93 162 l0 160 53 0
c35 0 68 -8 97 -22z"/>
</g>
</svg>
